<svg width="180" height="180" viewBox="0 0 180 180" fill="none" xmlns="http://www.w3.org/2000/svg">
  <rect width="180" height="180" rx="40" fill="#A51245"/>
  <!-- Stylised flower / petal mark -->
  <circle cx="90" cy="75" r="18" fill="white" opacity="0.95"/>
  <ellipse cx="90" cy="48" rx="9" ry="16" fill="white" opacity="0.85"/>
  <ellipse cx="90" cy="102" rx="9" ry="16" fill="white" opacity="0.85"/>
  <ellipse cx="63" cy="75" rx="16" ry="9" fill="white" opacity="0.85"/>
  <ellipse cx="117" cy="75" rx="16" ry="9" fill="white" opacity="0.85"/>
  <ellipse cx="71" cy="56" rx="9" ry="16" transform="rotate(-45 71 56)" fill="white" opacity="0.7"/>
  <ellipse cx="109" cy="56" rx="9" ry="16" transform="rotate(45 109 56)" fill="white" opacity="0.7"/>
  <ellipse cx="71" cy="94" rx="9" ry="16" transform="rotate(45 71 94)" fill="white" opacity="0.7"/>
  <ellipse cx="109" cy="94" rx="9" ry="16" transform="rotate(-45 109 94)" fill="white" opacity="0.7"/>
  <circle cx="90" cy="75" r="10" fill="#A51245"/>
  <!-- stem -->
  <rect x="86" y="118" width="8" height="24" rx="4" fill="white" opacity="0.8"/>
  <ellipse cx="78" cy="140" rx="10" ry="6" transform="rotate(-20 78 140)" fill="white" opacity="0.6"/>
</svg>
